<?xml version="1.0" standalone="no"?><!DOCTYPE svg PUBLIC "-//W3C//DTD SVG 1.1//EN" "http://www.w3.org/Graphics/SVG/1.1/DTD/svg11.dtd"><svg t="1676017772823" class="icon" viewBox="0 0 1024 1024" version="1.1" xmlns="http://www.w3.org/2000/svg" p-id="26609" xmlns:xlink="http://www.w3.org/1999/xlink" width="200" height="200"><path d="M887.541 314.257c-10.58-10.57800001-27.718-10.578-38.322 0l-337.521 337.521-337.522-337.52c-10.606-10.578-27.745-10.57800001-38.324-1e-8-10.578 10.578-10.578 27.744 0 38.32200001l353.208 353.206c0.923 1.34 1.976 2.619 3.169 3.812 5.359 5.35799999 12.427 7.991 19.468 7.907 7.043 0.084 14.11099999-2.546 19.471-7.907 1.193-1.193 2.243-2.473 3.17-3.813l353.205-353.204c10.579-10.578 10.579-27.743 0-38.322z" fill="#606266" p-id="26610"></path></svg>