<?xml version="1.0" standalone="no"?><!DOCTYPE svg PUBLIC "-//W3C//DTD SVG 1.1//EN" "http://www.w3.org/Graphics/SVG/1.1/DTD/svg11.dtd"><svg t="1676017659015" class="icon" viewBox="0 0 1024 1024" version="1.1" xmlns="http://www.w3.org/2000/svg" p-id="26459" xmlns:xlink="http://www.w3.org/1999/xlink" width="200" height="200"><path d="M314.257 136.459c-10.578 10.58-10.578 27.718 0 38.322l337.521 337.521-337.52 337.522c-10.578 10.606-10.578 27.745 0 38.324 10.578 10.578 27.744 10.578 38.322 0l353.206-353.208c1.34-0.923 2.619-1.976 3.812-3.169 5.358-5.359 7.991-12.427 7.907-19.468 0.084-7.043-2.546-14.111-7.907-19.471-1.193-1.193-2.473-2.243-3.813-3.17l-353.204-353.205c-10.578-10.579-27.743-10.579-38.322 0z" fill="#606266" p-id="26460"></path></svg>