<?xml version="1.0" standalone="no"?><!DOCTYPE svg PUBLIC "-//W3C//DTD SVG 1.1//EN" "http://www.w3.org/Graphics/SVG/1.1/DTD/svg11.dtd"><svg t="1676018106645" class="icon" viewBox="0 0 1024 1024" version="1.1" xmlns="http://www.w3.org/2000/svg" p-id="28448" xmlns:xlink="http://www.w3.org/1999/xlink" width="200" height="200"><path d="M512 896c-212.077 0-384-171.923-384-384s171.923-384 384-384 384 171.923 384 384-171.923 384-384 384z m0 64c247.424 0 448-200.576 448-448S759.424 64 512 64 64 264.576 64 512s200.576 448 448 448z" fill="currentColor" p-id="28449"></path><path d="M767.696 347.343a8 8 0 0 0-11.314 0L445.137 658.588 268.598 482.049a8 8 0 0 0-11.314 0l-33.941 33.941a8 8 0 0 0 0 11.314l197.99 197.99c0.973 0.973 1.993 1.87 3.053 2.692 12.572 10.837 31.57 10.293 43.496-1.634l333.755-333.754a8 8 0 0 0 0-11.314l-33.941-33.941z" fill="currentColor" p-id="28450"></path></svg>