<?xml version="1.0" standalone="no"?><!DOCTYPE svg PUBLIC "-//W3C//DTD SVG 1.1//EN" "http://www.w3.org/Graphics/SVG/1.1/DTD/svg11.dtd"><svg t="1676018484413" class="icon" viewBox="0 0 1024 1024" version="1.1" xmlns="http://www.w3.org/2000/svg" p-id="8802" xmlns:xlink="http://www.w3.org/1999/xlink" width="200" height="200"><path d="M314.24609375 314.24609375v469.66552734a24.71923828 24.71923828 0 0 0 24.71923828 24.71923829h346.06933594a24.71923828 24.71923828 0 0 0 24.71923828-24.71923829V314.24609375z m370.78857422 543.82324219H338.96533203a74.15771484 74.15771484 0 0 1-74.15771484-74.15771485V289.52685547a24.71923828 24.71923828 0 0 1 24.71923828-24.71923828h444.94628906a24.71923828 24.71923828 0 0 1 24.71923828 24.71923828v494.38476562a74.15771484 74.15771484 0 0 1-74.15771484 74.15771485z" p-id="8803"></path><path d="M240.08837891 314.24609375a24.71923828 24.71923828 0 0 1 0-49.43847656h543.82324218a24.71923828 24.71923828 0 0 1 0 49.43847656zM388.40380859 462.56152344a24.71923828 24.71923828 0 0 1 49.43847657 0v197.75390625a24.71923828 24.71923828 0 0 1-49.43847657 0zM487.28076172 462.56152344a24.71923828 24.71923828 0 0 1 49.43847656 0v197.75390625a24.71923828 24.71923828 0 0 1-49.43847656 0zM586.15771484 462.56152344a24.71923828 24.71923828 0 0 1 49.43847657 0v197.75390625a24.71923828 24.71923828 0 0 1-49.43847657 0z" p-id="8804"></path><path d="M616.31518555 215.36914062h-208.6303711l-12.35961914 49.43847657h233.34960938zM660.31542969 314.24609375H363.68457031a24.71923828 24.71923828 0 0 1-24.71923828-30.65185547l24.71923828-98.87695312A24.71923828 24.71923828 0 0 1 388.40380859 165.93066406h247.19238282a24.71923828 24.71923828 0 0 1 24.71923828 18.7866211l24.71923828 98.87695312A24.71923828 24.71923828 0 0 1 660.31542969 314.24609375z" p-id="8805"></path></svg>