<?xml version="1.0" standalone="no"?><!DOCTYPE svg PUBLIC "-//W3C//DTD SVG 1.1//EN" "http://www.w3.org/Graphics/SVG/1.1/DTD/svg11.dtd"><svg t="1676017927049" class="icon" viewBox="0 0 1024 1024" version="1.1" xmlns="http://www.w3.org/2000/svg" p-id="26909" xmlns:xlink="http://www.w3.org/1999/xlink" width="200" height="200"><path d="M798.584 276.884l-124.152-111.36h-414.36A12 12 0 0 0 248 177.644V859.88c0 6.756 5.364 12.108 12.072 12.108h526.44c6.72 0 12.072-5.376 12.072-12.12V276.884zM212 177.644a48 48 0 0 1 48.06-48.12h428.16l146.364 131.292V859.88A48.036 48.036 0 0 1 786.512 908h-526.44A48.024 48.024 0 0 1 212 859.88V177.644z" fill="#4A4A4A" p-id="26910"></path><path d="M692.708 195.752v48.192a12.12 12.12 0 0 0 12.06 12.108h56.292l-68.352-60.3z m127.68 64.62c19.836 17.496 14.364 31.68-12.144 31.68h-103.476a48.12 48.12 0 0 1-48.06-48.12V164.12c0-26.568 16.164-33.84 35.916-16.44l127.764 112.704zM320 308h254.112a18 18 0 0 0 0-36H320a18 18 0 0 0 0 36zM320 440h381.18a18 18 0 0 0 0-36H320a18 18 0 0 0 0 36zM320 560h381.18a18 18 0 0 0 0-36H320a18 18 0 0 0 0 36zM320 692h381.18a18 18 0 0 0 0-36H320a18 18 0 0 0 0 36z" fill="#4A4A4A" p-id="26911"></path></svg>